<svg id="visual" viewBox="0 0 960 100" width="960" height="100" xmlns="http://www.w3.org/2000/svg" xmlns:xlink="http://www.w3.org/1999/xlink" version="1.1"><rect x="0" y="0" width="960" height="100" fill="#ffc0cb"></rect><path d="M0 39L22.8 35.5C45.7 32 91.3 25 137 23.7C182.7 22.3 228.3 26.7 274 29.8C319.7 33 365.3 35 411.2 37C457 39 503 41 548.8 38.7C594.7 36.3 640.3 29.7 686 27.8C731.7 26 777.3 29 823 31.8C868.7 34.7 914.3 37.3 937.2 38.7L960 40L960 101L937.2 101C914.3 101 868.7 101 823 101C777.3 101 731.7 101 686 101C640.3 101 594.7 101 548.8 101C503 101 457 101 411.2 101C365.3 101 319.7 101 274 101C228.3 101 182.7 101 137 101C91.3 101 45.7 101 22.8 101L0 101Z" fill="#800080"></path><path d="M0 46L22.8 46.2C45.7 46.3 91.3 46.7 137 44.2C182.7 41.7 228.3 36.3 274 34C319.7 31.7 365.3 32.3 411.2 37C457 41.7 503 50.3 548.8 54.2C594.7 58 640.3 57 686 53.7C731.7 50.3 777.3 44.7 823 44C868.7 43.3 914.3 47.7 937.2 49.8L960 52L960 101L937.2 101C914.3 101 868.7 101 823 101C777.3 101 731.7 101 686 101C640.3 101 594.7 101 548.8 101C503 101 457 101 411.2 101C365.3 101 319.7 101 274 101C228.3 101 182.7 101 137 101C91.3 101 45.7 101 22.8 101L0 101Z" fill="#6c006d"></path><path d="M0 65L22.8 62.3C45.7 59.7 91.3 54.3 137 52.8C182.7 51.3 228.3 53.7 274 55.2C319.7 56.7 365.3 57.3 411.2 58.5C457 59.7 503 61.3 548.8 59.7C594.7 58 640.3 53 686 51.3C731.7 49.7 777.3 51.3 823 51C868.7 50.7 914.3 48.3 937.2 47.2L960 46L960 101L937.2 101C914.3 101 868.7 101 823 101C777.3 101 731.7 101 686 101C640.3 101 594.7 101 548.8 101C503 101 457 101 411.2 101C365.3 101 319.7 101 274 101C228.3 101 182.7 101 137 101C91.3 101 45.7 101 22.8 101L0 101Z" fill="#58005a"></path><path d="M0 69L22.8 68C45.7 67 91.3 65 137 65.5C182.7 66 228.3 69 274 69C319.7 69 365.3 66 411.2 66.8C457 67.7 503 72.3 548.8 72.5C594.7 72.7 640.3 68.3 686 65.8C731.7 63.3 777.3 62.7 823 63.3C868.7 64 914.3 66 937.2 67L960 68L960 101L937.2 101C914.3 101 868.7 101 823 101C777.3 101 731.7 101 686 101C640.3 101 594.7 101 548.8 101C503 101 457 101 411.2 101C365.3 101 319.7 101 274 101C228.3 101 182.7 101 137 101C91.3 101 45.7 101 22.8 101L0 101Z" fill="#3f0043"></path><path d="M0 75L22.8 76.7C45.7 78.3 91.3 81.7 137 83.5C182.7 85.3 228.3 85.7 274 84.3C319.7 83 365.3 80 411.2 80.3C457 80.7 503 84.3 548.8 86C594.7 87.7 640.3 87.3 686 85.5C731.7 83.7 777.3 80.3 823 80.5C868.7 80.7 914.3 84.3 937.2 86.2L960 88L960 101L937.2 101C914.3 101 868.7 101 823 101C777.3 101 731.7 101 686 101C640.3 101 594.7 101 548.8 101C503 101 457 101 411.2 101C365.3 101 319.7 101 274 101C228.3 101 182.7 101 137 101C91.3 101 45.7 101 22.8 101L0 101Z" fill="#000000"></path></svg>