<svg id="visual" viewBox="0 0 960 300" width="960" height="300" xmlns="http://www.w3.org/2000/svg" xmlns:xlink="http://www.w3.org/1999/xlink" version="1.1"><rect x="0" y="0" width="960" height="300" fill="#ffc0cb"></rect><path d="M0 180L22.8 187.7C45.7 195.3 91.3 210.7 137 213C182.7 215.3 228.3 204.7 274 194.7C319.7 184.7 365.3 175.3 411.2 168.2C457 161 503 156 548.8 169.2C594.7 182.3 640.3 213.7 686 229.7C731.7 245.7 777.3 246.3 823 236.8C868.7 227.3 914.3 207.7 937.2 197.8L960 188L960 0L937.2 0C914.3 0 868.7 0 823 0C777.3 0 731.7 0 686 0C640.3 0 594.7 0 548.8 0C503 0 457 0 411.2 0C365.3 0 319.7 0 274 0C228.3 0 182.7 0 137 0C91.3 0 45.7 0 22.8 0L0 0Z" fill="#800080"></path><path d="M0 143L22.8 144C45.7 145 91.3 147 137 157.2C182.7 167.3 228.3 185.7 274 191.2C319.7 196.7 365.3 189.3 411.2 175.7C457 162 503 142 548.8 140.2C594.7 138.3 640.3 154.7 686 166.2C731.7 177.7 777.3 184.3 823 177.5C868.7 170.7 914.3 150.3 937.2 140.2L960 130L960 0L937.2 0C914.3 0 868.7 0 823 0C777.3 0 731.7 0 686 0C640.3 0 594.7 0 548.8 0C503 0 457 0 411.2 0C365.3 0 319.7 0 274 0C228.3 0 182.7 0 137 0C91.3 0 45.7 0 22.8 0L0 0Z" fill="#6c006d"></path><path d="M0 141L22.8 133.7C45.7 126.3 91.3 111.7 137 107.3C182.7 103 228.3 109 274 110.3C319.7 111.7 365.3 108.3 411.2 116C457 123.7 503 142.3 548.8 148.7C594.7 155 640.3 149 686 148.5C731.7 148 777.3 153 823 144.5C868.7 136 914.3 114 937.2 103L960 92L960 0L937.2 0C914.3 0 868.7 0 823 0C777.3 0 731.7 0 686 0C640.3 0 594.7 0 548.8 0C503 0 457 0 411.2 0C365.3 0 319.7 0 274 0C228.3 0 182.7 0 137 0C91.3 0 45.7 0 22.8 0L0 0Z" fill="#58005a"></path><path d="M0 69L22.8 71.8C45.7 74.7 91.3 80.3 137 79.7C182.7 79 228.3 72 274 73.2C319.7 74.3 365.3 83.7 411.2 85.8C457 88 503 83 548.8 81C594.7 79 640.3 80 686 77.2C731.7 74.3 777.3 67.7 823 69.8C868.7 72 914.3 83 937.2 88.5L960 94L960 0L937.2 0C914.3 0 868.7 0 823 0C777.3 0 731.7 0 686 0C640.3 0 594.7 0 548.8 0C503 0 457 0 411.2 0C365.3 0 319.7 0 274 0C228.3 0 182.7 0 137 0C91.3 0 45.7 0 22.8 0L0 0Z" fill="#3f0043"></path><path d="M0 47L22.8 44.3C45.7 41.7 91.3 36.3 137 38.7C182.7 41 228.3 51 274 52.8C319.7 54.7 365.3 48.3 411.2 43.7C457 39 503 36 548.8 39.7C594.7 43.3 640.3 53.7 686 54.8C731.7 56 777.3 48 823 44.7C868.7 41.3 914.3 42.7 937.2 43.3L960 44L960 0L937.2 0C914.3 0 868.7 0 823 0C777.3 0 731.7 0 686 0C640.3 0 594.7 0 548.8 0C503 0 457 0 411.2 0C365.3 0 319.7 0 274 0C228.3 0 182.7 0 137 0C91.3 0 45.7 0 22.8 0L0 0Z" fill="#000000"></path></svg>