<svg id="visual" viewBox="0 0 960 300" width="960" height="300" xmlns="http://www.w3.org/2000/svg" xmlns:xlink="http://www.w3.org/1999/xlink" version="1.1"><rect x="0" y="0" width="960" height="300" fill="#ffc0cb"></rect><path d="M0 118L22.8 107.7C45.7 97.3 91.3 76.7 137 72.8C182.7 69 228.3 82 274 91.5C319.7 101 365.3 107 411.2 113.2C457 119.3 503 125.7 548.8 118.8C594.7 112 640.3 92 686 86.2C731.7 80.3 777.3 88.7 823 97C868.7 105.3 914.3 113.7 937.2 117.8L960 122L960 301L937.2 301C914.3 301 868.7 301 823 301C777.3 301 731.7 301 686 301C640.3 301 594.7 301 548.8 301C503 301 457 301 411.2 301C365.3 301 319.7 301 274 301C228.3 301 182.7 301 137 301C91.3 301 45.7 301 22.8 301L0 301Z" fill="#800080"></path><path d="M0 139L22.8 139.8C45.7 140.7 91.3 142.3 137 135C182.7 127.7 228.3 111.3 274 104C319.7 96.7 365.3 98.3 411.2 112.2C457 126 503 152 548.8 163.7C594.7 175.3 640.3 172.7 686 163C731.7 153.3 777.3 136.7 823 134.5C868.7 132.3 914.3 144.7 937.2 150.8L960 157L960 301L937.2 301C914.3 301 868.7 301 823 301C777.3 301 731.7 301 686 301C640.3 301 594.7 301 548.8 301C503 301 457 301 411.2 301C365.3 301 319.7 301 274 301C228.3 301 182.7 301 137 301C91.3 301 45.7 301 22.8 301L0 301Z" fill="#6c006d"></path><path d="M0 197L22.8 189.2C45.7 181.3 91.3 165.7 137 161.2C182.7 156.7 228.3 163.3 274 167.5C319.7 171.7 365.3 173.3 411.2 176.8C457 180.3 503 185.7 548.8 180.8C594.7 176 640.3 161 686 155.8C731.7 150.7 777.3 155.3 823 154.2C868.7 153 914.3 146 937.2 142.5L960 139L960 301L937.2 301C914.3 301 868.7 301 823 301C777.3 301 731.7 301 686 301C640.3 301 594.7 301 548.8 301C503 301 457 301 411.2 301C365.3 301 319.7 301 274 301C228.3 301 182.7 301 137 301C91.3 301 45.7 301 22.8 301L0 301Z" fill="#58005a"></path><path d="M0 208L22.8 205.3C45.7 202.7 91.3 197.3 137 199.2C182.7 201 228.3 210 274 209.8C319.7 209.7 365.3 200.3 411.2 202.7C457 205 503 219 548.8 219.3C594.7 219.7 640.3 206.3 686 198.7C731.7 191 777.3 189 823 191.2C868.7 193.3 914.3 199.7 937.2 202.8L960 206L960 301L937.2 301C914.3 301 868.7 301 823 301C777.3 301 731.7 301 686 301C640.3 301 594.7 301 548.8 301C503 301 457 301 411.2 301C365.3 301 319.7 301 274 301C228.3 301 182.7 301 137 301C91.3 301 45.7 301 22.8 301L0 301Z" fill="#3f0043"></path><path d="M0 227L22.8 232.2C45.7 237.3 91.3 247.7 137 253.2C182.7 258.7 228.3 259.3 274 255.2C319.7 251 365.3 242 411.2 243.2C457 244.3 503 255.7 548.8 260.5C594.7 265.3 640.3 263.7 686 258.2C731.7 252.7 777.3 243.3 823 244.2C868.7 245 914.3 256 937.2 261.5L960 267L960 301L937.2 301C914.3 301 868.7 301 823 301C777.3 301 731.7 301 686 301C640.3 301 594.7 301 548.8 301C503 301 457 301 411.2 301C365.3 301 319.7 301 274 301C228.3 301 182.7 301 137 301C91.3 301 45.7 301 22.8 301L0 301Z" fill="#000000"></path></svg>