<svg id="visual" viewBox="0 0 960 100" width="960" height="100" xmlns="http://www.w3.org/2000/svg" xmlns:xlink="http://www.w3.org/1999/xlink" version="1.1"><rect x="0" y="0" width="960" height="100" fill="#ffc0cb"></rect><path d="M0 59L22.8 61.7C45.7 64.3 91.3 69.7 137 70.5C182.7 71.3 228.3 67.7 274 64.3C319.7 61 365.3 58 411.2 55.7C457 53.3 503 51.7 548.8 56C594.7 60.3 640.3 70.7 686 76C731.7 81.3 777.3 81.7 823 78.5C868.7 75.3 914.3 68.7 937.2 65.3L960 62L960 0L937.2 0C914.3 0 868.7 0 823 0C777.3 0 731.7 0 686 0C640.3 0 594.7 0 548.8 0C503 0 457 0 411.2 0C365.3 0 319.7 0 274 0C228.3 0 182.7 0 137 0C91.3 0 45.7 0 22.8 0L0 0Z" fill="#800080"></path><path d="M0 47L22.8 47.3C45.7 47.7 91.3 48.3 137 51.7C182.7 55 228.3 61 274 62.8C319.7 64.7 365.3 62.3 411.2 57.8C457 53.3 503 46.7 548.8 46C594.7 45.3 640.3 50.7 686 54.5C731.7 58.3 777.3 60.7 823 58.5C868.7 56.3 914.3 49.7 937.2 46.3L960 43L960 0L937.2 0C914.3 0 868.7 0 823 0C777.3 0 731.7 0 686 0C640.3 0 594.7 0 548.8 0C503 0 457 0 411.2 0C365.3 0 319.7 0 274 0C228.3 0 182.7 0 137 0C91.3 0 45.7 0 22.8 0L0 0Z" fill="#6c006d"></path><path d="M0 46L22.8 43.7C45.7 41.3 91.3 36.7 137 35.3C182.7 34 228.3 36 274 36.3C319.7 36.7 365.3 35.3 411.2 37.8C457 40.3 503 46.7 548.8 48.8C594.7 51 640.3 49 686 48.8C731.7 48.7 777.3 50.3 823 47.5C868.7 44.7 914.3 37.3 937.2 33.7L960 30L960 0L937.2 0C914.3 0 868.7 0 823 0C777.3 0 731.7 0 686 0C640.3 0 594.7 0 548.8 0C503 0 457 0 411.2 0C365.3 0 319.7 0 274 0C228.3 0 182.7 0 137 0C91.3 0 45.7 0 22.8 0L0 0Z" fill="#58005a"></path><path d="M0 22L22.8 23C45.7 24 91.3 26 137 25.8C182.7 25.7 228.3 23.3 274 23.7C319.7 24 365.3 27 411.2 27.7C457 28.3 503 26.7 548.8 26C594.7 25.3 640.3 25.7 686 24.8C731.7 24 777.3 22 823 22.8C868.7 23.7 914.3 27.3 937.2 29.2L960 31L960 0L937.2 0C914.3 0 868.7 0 823 0C777.3 0 731.7 0 686 0C640.3 0 594.7 0 548.8 0C503 0 457 0 411.2 0C365.3 0 319.7 0 274 0C228.3 0 182.7 0 137 0C91.3 0 45.7 0 22.8 0L0 0Z" fill="#3f0043"></path><path d="M0 15L22.8 14.2C45.7 13.3 91.3 11.7 137 12.5C182.7 13.3 228.3 16.7 274 17.2C319.7 17.7 365.3 15.3 411.2 13.7C457 12 503 11 548.8 12.3C594.7 13.7 640.3 17.3 686 17.8C731.7 18.3 777.3 15.7 823 14.5C868.7 13.3 914.3 13.7 937.2 13.8L960 14L960 0L937.2 0C914.3 0 868.7 0 823 0C777.3 0 731.7 0 686 0C640.3 0 594.7 0 548.8 0C503 0 457 0 411.2 0C365.3 0 319.7 0 274 0C228.3 0 182.7 0 137 0C91.3 0 45.7 0 22.8 0L0 0Z" fill="#000000"></path></svg>