<svg id="visual" viewBox="0 0 960 100" width="960" height="100" xmlns="http://www.w3.org/2000/svg" xmlns:xlink="http://www.w3.org/1999/xlink" version="1.1"><rect x="0" y="0" width="960" height="100" fill="#ffc0cb"></rect><path d="M0 75L22.8 75.5C45.7 76 91.3 77 137 75C182.7 73 228.3 68 274 63.8C319.7 59.7 365.3 56.3 411.2 58.2C457 60 503 67 548.8 67.2C594.7 67.3 640.3 60.7 686 59.7C731.7 58.7 777.3 63.3 823 63C868.7 62.7 914.3 57.3 937.2 54.7L960 52L960 0L937.2 0C914.3 0 868.7 0 823 0C777.3 0 731.7 0 686 0C640.3 0 594.7 0 548.8 0C503 0 457 0 411.2 0C365.3 0 319.7 0 274 0C228.3 0 182.7 0 137 0C91.3 0 45.7 0 22.8 0L0 0Z" fill="#800080"></path><path d="M0 47L22.8 45.7C45.7 44.3 91.3 41.7 137 40.5C182.7 39.3 228.3 39.7 274 42C319.7 44.3 365.3 48.7 411.2 49C457 49.3 503 45.7 548.8 43.7C594.7 41.7 640.3 41.3 686 43.5C731.7 45.7 777.3 50.3 823 53.7C868.7 57 914.3 59 937.2 60L960 61L960 0L937.2 0C914.3 0 868.7 0 823 0C777.3 0 731.7 0 686 0C640.3 0 594.7 0 548.8 0C503 0 457 0 411.2 0C365.3 0 319.7 0 274 0C228.3 0 182.7 0 137 0C91.3 0 45.7 0 22.8 0L0 0Z" fill="#6c006d"></path><path d="M0 33L22.8 35.7C45.7 38.3 91.3 43.7 137 43.3C182.7 43 228.3 37 274 35.5C319.7 34 365.3 37 411.2 38.3C457 39.7 503 39.3 548.8 38.8C594.7 38.3 640.3 37.7 686 36.5C731.7 35.3 777.3 33.7 823 32.5C868.7 31.3 914.3 30.7 937.2 30.3L960 30L960 0L937.2 0C914.3 0 868.7 0 823 0C777.3 0 731.7 0 686 0C640.3 0 594.7 0 548.8 0C503 0 457 0 411.2 0C365.3 0 319.7 0 274 0C228.3 0 182.7 0 137 0C91.3 0 45.7 0 22.8 0L0 0Z" fill="#58005a"></path><path d="M0 35L22.8 35C45.7 35 91.3 35 137 34.2C182.7 33.3 228.3 31.7 274 29C319.7 26.3 365.3 22.7 411.2 20.8C457 19 503 19 548.8 21.5C594.7 24 640.3 29 686 31.3C731.7 33.7 777.3 33.3 823 33.8C868.7 34.3 914.3 35.7 937.2 36.3L960 37L960 0L937.2 0C914.3 0 868.7 0 823 0C777.3 0 731.7 0 686 0C640.3 0 594.7 0 548.8 0C503 0 457 0 411.2 0C365.3 0 319.7 0 274 0C228.3 0 182.7 0 137 0C91.3 0 45.7 0 22.8 0L0 0Z" fill="#3f0043"></path><path d="M0 24L22.8 24C45.7 24 91.3 24 137 23.7C182.7 23.3 228.3 22.7 274 22.5C319.7 22.3 365.3 22.7 411.2 22.2C457 21.7 503 20.3 548.8 20.2C594.7 20 640.3 21 686 21.8C731.7 22.7 777.3 23.3 823 21.7C868.7 20 914.3 16 937.2 14L960 12L960 0L937.2 0C914.3 0 868.7 0 823 0C777.3 0 731.7 0 686 0C640.3 0 594.7 0 548.8 0C503 0 457 0 411.2 0C365.3 0 319.7 0 274 0C228.3 0 182.7 0 137 0C91.3 0 45.7 0 22.8 0L0 0Z" fill="#000000"></path></svg>