<svg id="visual" viewBox="0 0 960 300" width="960" height="300" xmlns="http://www.w3.org/2000/svg" xmlns:xlink="http://www.w3.org/1999/xlink" version="1.1"><rect x="0" y="0" width="960" height="300" fill="#ffc0cb"></rect><path d="M0 227L22.8 228.3C45.7 229.7 91.3 232.3 137 226.3C182.7 220.3 228.3 205.7 274 193.5C319.7 181.3 365.3 171.7 411.2 177C457 182.3 503 202.7 548.8 202.8C594.7 203 640.3 183 686 180.2C731.7 177.3 777.3 191.7 823 191C868.7 190.3 914.3 174.7 937.2 166.8L960 159L960 0L937.2 0C914.3 0 868.7 0 823 0C777.3 0 731.7 0 686 0C640.3 0 594.7 0 548.8 0C503 0 457 0 411.2 0C365.3 0 319.7 0 274 0C228.3 0 182.7 0 137 0C91.3 0 45.7 0 22.8 0L0 0Z" fill="#800080"></path><path d="M0 144L22.8 140C45.7 136 91.3 128 137 124.3C182.7 120.7 228.3 121.3 274 128.2C319.7 135 365.3 148 411.2 149.2C457 150.3 503 139.7 548.8 133.5C594.7 127.3 640.3 125.7 686 132.2C731.7 138.7 777.3 153.3 823 163.5C868.7 173.7 914.3 179.3 937.2 182.2L960 185L960 0L937.2 0C914.3 0 868.7 0 823 0C777.3 0 731.7 0 686 0C640.3 0 594.7 0 548.8 0C503 0 457 0 411.2 0C365.3 0 319.7 0 274 0C228.3 0 182.7 0 137 0C91.3 0 45.7 0 22.8 0L0 0Z" fill="#6c006d"></path><path d="M0 102L22.8 109.7C45.7 117.3 91.3 132.7 137 131.5C182.7 130.3 228.3 112.7 274 108.2C319.7 103.7 365.3 112.3 411.2 116.2C457 120 503 119 548.8 117.7C594.7 116.3 640.3 114.7 686 111.5C731.7 108.3 777.3 103.7 823 100.2C868.7 96.7 914.3 94.3 937.2 93.2L960 92L960 0L937.2 0C914.3 0 868.7 0 823 0C777.3 0 731.7 0 686 0C640.3 0 594.7 0 548.8 0C503 0 457 0 411.2 0C365.3 0 319.7 0 274 0C228.3 0 182.7 0 137 0C91.3 0 45.7 0 22.8 0L0 0Z" fill="#58005a"></path><path d="M0 108L22.8 107.7C45.7 107.3 91.3 106.7 137 103.8C182.7 101 228.3 96 274 88C319.7 80 365.3 69 411.2 63.7C457 58.3 503 58.7 548.8 66.2C594.7 73.7 640.3 88.3 686 95.5C731.7 102.7 777.3 102.3 823 104.2C868.7 106 914.3 110 937.2 112L960 114L960 0L937.2 0C914.3 0 868.7 0 823 0C777.3 0 731.7 0 686 0C640.3 0 594.7 0 548.8 0C503 0 457 0 411.2 0C365.3 0 319.7 0 274 0C228.3 0 182.7 0 137 0C91.3 0 45.7 0 22.8 0L0 0Z" fill="#3f0043"></path><path d="M0 73L22.8 73.2C45.7 73.3 91.3 73.7 137 72.7C182.7 71.7 228.3 69.3 274 69C319.7 68.7 365.3 70.3 411.2 68.8C457 67.3 503 62.7 548.8 62.2C594.7 61.7 640.3 65.3 686 67.8C731.7 70.3 777.3 71.7 823 66.3C868.7 61 914.3 49 937.2 43L960 37L960 0L937.2 0C914.3 0 868.7 0 823 0C777.3 0 731.7 0 686 0C640.3 0 594.7 0 548.8 0C503 0 457 0 411.2 0C365.3 0 319.7 0 274 0C228.3 0 182.7 0 137 0C91.3 0 45.7 0 22.8 0L0 0Z" fill="#000000"></path></svg>