<svg width="523" height="614" viewBox="0 0 523 614" fill="none" xmlns="http://www.w3.org/2000/svg">
<g clip-path="url(#clip0_2_1339)">
<path d="M204.247 336.852C165.167 345.42 126.36 355.493 87.3257 364.608C74.6942 367.479 69.0852 372.493 73.6453 386.484C88.2359 433.825 117.688 475.214 157.643 504.526C166.763 511.271 172.782 511.91 179.622 501.564C207.941 458.586 230.605 413.83 232.565 361.235C233.934 331.155 233.751 330.38 204.247 336.852Z" fill="#FFC13B"/>
<path d="M212.41 323.59C227.094 320.536 228.735 315.796 224.677 302.351C208.124 247.022 164.438 219.403 117.697 194.291C110.856 190.599 108.166 193.88 105.065 198.575C75.6973 241.421 62.1552 293.142 66.7601 344.874C67.3529 351.391 68.8577 357.179 71.8218 356.404L88.7854 352.53C129.963 342.732 170.959 332.158 212.41 323.59Z" fill="#FFC13B"/>
<path d="M137.533 193.151C187.694 217.306 224.859 252.4 238.631 308.504C239.953 313.882 242.461 318.667 250.989 316.252C260.793 314.748 272.011 312.742 283.274 311.694C294.538 310.646 295.632 304.539 293.398 294.466C279.652 235.581 261.856 177.713 240.136 121.278C235.575 108.79 229.191 107.878 217.745 112.162C186.652 124.098 158.046 141.7 133.383 164.073C118.563 177.746 121.162 185.266 137.533 193.151Z" fill="#FF6E40"/>
<path d="M267.041 325.367C263.338 326.192 259.593 326.816 255.823 327.236C247.204 327.782 244.24 332.249 244.65 340.635C247.797 402.573 224.221 455.942 190.385 505.574C182.314 517.424 185.551 521.936 196.815 527.132C228.725 541.226 263.045 549.07 297.913 550.239C309.541 550.877 314.147 546.638 313.827 534.652C313.143 511.226 313.827 487.754 313.827 462.414C310.635 426.546 307.899 388.854 303.658 351.3C299.828 319.488 299.007 319.579 267.041 325.367Z" fill="#FF6E40"/>
<path d="M519.853 295.879C512.101 292.279 512.146 300.437 508.908 303.81C507.586 305.268 504.85 307 503.345 306.544C485.697 301.212 479.541 312.059 475.392 333.115C468.688 309.096 464.037 291.641 458.838 274.367C457.47 269.81 457.242 262.472 449.718 263.338C443.79 264.067 445.158 270.22 444.565 274.413C443.106 289.818 442.24 304.903 419.849 302.898C413.283 302.306 413.283 309.826 412.644 315.112C411.595 324.228 410.273 333.069 408.859 343.78C403.972 339.674 400.894 333.815 400.286 327.463C392.489 297.383 384.964 267.212 376.528 237.314C374.704 230.751 376.072 218.309 366.952 219.084C356.6 220.223 360.522 232.483 359.747 240.003C358.014 256.593 357.969 273.365 356.19 289.909C353.5 315.067 332.295 300.984 320.074 305.815C309.586 309.962 306.394 302.26 304.159 292.643C291.803 234.034 274.253 176.641 251.718 121.141C245.334 104.825 252.447 101.179 266.219 100.267C298.14 98.1705 330.061 97.6692 361.297 105.873C366.131 107.103 372.698 110.43 373.838 102.409C374.567 97.3046 368.685 96.0285 364.125 94.8891C340.464 89.2524 316.157 86.8 291.847 87.5969C184.41 89.6022 90.3351 161.111 61.9256 262.518C34.5649 360.871 76.6548 468.658 167.036 524.397C242.324 570.794 321.807 572.115 402.703 539.711C407.491 537.797 417.159 536.384 413.648 528.454C410.136 520.523 403.068 527.679 398.052 529.183C382.821 533.74 368.092 539.939 352.451 543.767C325.592 550.421 323.768 548.735 323.904 521.572C324.269 460.819 322.856 400.157 312.869 340.134C310.087 323.453 312.869 318.12 330.562 316.799C366.314 314.201 366.222 312.925 369.095 278.469C369.095 277.512 370.554 276.692 371.831 275.233C377.075 278.652 376.802 284.349 378.124 289.18C386.636 321.387 395.209 353.594 403.843 385.801C405.166 390.769 405.166 397.559 412.964 396.101C418.709 395.053 417.843 389.31 418.253 384.889C419.758 366.659 422.813 348.428 422.357 330.517C421.765 311.238 434.396 315.386 445.66 312.287C462.076 307.729 458.246 320.399 461.118 327.053C463.991 333.707 465.131 341.82 467.867 348.656C471.926 358.318 468.415 376.64 481.548 375.637C492.218 374.771 485.834 357.407 488.434 347.608C492.036 333.935 485.424 313.061 512.557 318.531C520.765 320.171 521.449 312.059 522.406 306.088C522.862 302.488 524.413 297.885 519.853 295.879ZM133.383 164.073C158.02 141.586 186.627 123.875 217.745 111.843C229.191 107.286 235.484 108.334 240.135 120.959C261.856 177.394 279.652 235.262 293.397 294.147C295.632 304.22 294.811 310.053 283.274 311.375C271.737 312.697 260.792 314.657 250.988 315.933C242.461 318.348 239.953 313.563 238.63 308.185C224.95 252.263 187.466 217.033 137.532 192.832C121.162 185.266 118.562 177.746 133.383 164.073ZM66.7593 344.874C62.1013 293.164 75.5783 241.444 104.882 198.575C107.983 194.017 110.673 190.599 117.513 194.29C164.255 219.403 207.941 247.022 224.494 302.306C228.552 315.978 226.911 320.536 212.227 323.544C170.776 332.158 129.78 342.731 88.6023 352.53L71.6386 356.404C68.857 357.179 67.3521 351.391 66.7593 344.874ZM157.962 504.39C118.007 475.078 88.5548 433.689 73.9643 386.348C69.4042 372.356 74.9219 367.342 87.6447 364.471C126.679 355.356 165.486 345.42 204.566 336.852C234.07 330.38 234.252 331.155 232.976 361.235C230.604 413.83 207.941 458.586 179.713 501.336C172.873 511.773 166.808 511.135 157.734 504.39H157.962ZM313.827 462.414C313.827 487.754 313.371 511.226 313.827 534.652C314.146 546.638 309.54 550.877 297.912 550.239C263.044 549.07 228.724 541.226 196.814 527.132C185.55 521.936 182.313 517.424 190.384 505.575C224.22 455.942 247.796 402.573 244.65 340.635C244.239 332.249 247.203 327.783 255.822 327.236C259.592 326.816 263.337 326.192 267.04 325.367C298.961 319.579 299.827 319.488 303.521 351.3C307.67 388.854 310.406 426.546 313.599 462.414H313.827Z" fill="#F5F0E1"/>
<path d="M463.125 550.649C413.599 581.947 356.095 598.309 297.502 597.775C277.596 597.327 257.765 595.193 238.22 591.394C101.964 564.049 2.78131 437.53 14.5464 305.997C27.5884 160.747 143.735 49.4044 285.828 44.9835C341.415 42.9603 396.529 55.8655 445.432 82.3559C450.95 85.3183 458.246 92.656 462.943 84.0878C467.64 75.5195 457.197 73.423 451.907 70.4149C434.048 60.3878 415.208 52.2174 395.681 46.0318C390.255 44.1176 382.639 44.6189 382.73 36.0051C383.004 14.9034 367.728 9.43425 351.63 6.24393C323.266 0.638086 294.72 -3.09915 265.855 3.50937C255.366 5.87933 240.683 8.65946 239.725 18.6862C237.445 43.4795 218.11 42.3857 202.879 47.6725C179.839 55.313 157.746 65.558 137.031 78.2084C129.689 82.766 124.217 86.3665 115.371 78.7554C104.746 69.6402 93.9837 76.5677 84.7722 83.9966C76.336 90.833 66.1214 99.9026 73.1895 110.476C82.629 124.605 73.1895 130.712 66.3038 139.007C19.745 195.156 -4.56048 260.057 0.683656 332.431C8.80067 446.371 64.0693 532.966 167.903 582.507C271.737 632.048 373.975 621.566 471.47 561.542C477.398 557.896 488.616 553.521 483.509 545.636C476.258 534.561 469.008 546.912 463.125 550.649Z" fill="#F5F0E1"/>
</g>
<defs>
<clipPath id="clip0_2_1339">
<rect width="523" height="614" fill="white"/>
</clipPath>
</defs>
</svg>
